<?xml version="1.0" encoding="utf-8"?>
<!-- Generator: Adobe Illustrator 15.0.0, SVG Export Plug-In . SVG Version: 6.00 Build 0)  -->
<!DOCTYPE svg PUBLIC "-//W3C//DTD SVG 1.1//EN" "http://www.w3.org/Graphics/SVG/1.1/DTD/svg11.dtd">
<svg version="1.1" id="Layer_1" xmlns="http://www.w3.org/2000/svg" xmlns:xlink="http://www.w3.org/1999/xlink" x="0px" y="0px"
	 width="342px" height="105px" viewBox="148.5 34.5 342 105" enable-background="new 148.5 34.5 342 105" xml:space="preserve">
<g>
	<path d="M228.805,82.573c-0.563-5.226-2.652-9.371-5.881-11.671c-0.44-0.313-1.011-0.379-1.512-0.175
		c-0.502,0.204-0.863,0.651-0.959,1.184c-0.351,1.966-3.688,5.511-5.68,6.782c-12.198,7.79-12.631,17.087-12.644,17.477
		c-0.028,0.871,0.656,1.601,1.527,1.628c0.862,0.042,1.6-0.656,1.629-1.527c0.003-0.079,0.377-8.013,11.188-14.917
		c1.417-0.905,4.525-3.645,6.139-6.464c1.613,1.908,2.698,4.72,3.054,8.022c0.671,6.236-1.258,12.871-4.915,16.9
		c-5.028,5.534-12.892,6.41-16.174,6.522c2.406-4.698,5.807-9.72,9.605-11.088c0.82-0.295,1.247-1.2,0.951-2.02
		c-0.296-0.821-1.202-1.246-2.02-0.95c-6.014,2.164-10.523,10.479-12.889,15.862c-2.134-7.246-6.413-16.652-15.015-25.254
		c-0.618-0.617-1.617-0.617-2.234,0c-0.618,0.618-0.618,1.616,0,2.234c3.869,3.869,6.811,7.942,9.054,11.892
		c-3.35-0.393-9.438-1.723-14.954-6.213c-3.903-3.177-6.33-9.01-6.33-15.232c0-4.398,1.218-8.272,3.319-10.749
		c2.032,2.257,5.072,3.706,7.406,4.804c0.772,0.364,1.502,0.745,2.063,1.055c11.589,6.432,12.087,20.136,12.093,20.312
		c0.019,0.854,0.721,1.688,1.577,1.688c0.012,0,0.023,0,0.037,0c0.872,0,1.563-0.895,1.543-1.766
		c-0.014-0.633-0.499-15.741-13.717-23.077c-0.654-0.363-1.43-0.729-2.251-1.114c-2.602-1.224-5.841-2.747-7.182-5.106
		c-0.229-0.404-0.625-0.687-1.083-0.771c-0.456-0.085-0.927,0.033-1.289,0.327c-3.554,2.894-5.676,8.27-5.676,14.385
		c0.001,7.256,2.803,13.868,7.496,17.686c7.563,6.156,15.946,6.977,18.688,7.075c5.241,10.835,5.417,19.962,5.419,20.094
		c0.009,0.866,0.714,1.564,1.58,1.564c0.004,0,0.01,0,0.013,0c0.873-0.008,1.573-0.717,1.566-1.59
		c-0.002-0.295-0.048-2.936-0.829-6.961c0.361-1.044,0.884-2.399,1.554-3.924c0.173,0.006,0.436,0.016,0.795,0.016
		c3.15,0,12.883-0.599,19.221-7.579C227.326,97.268,229.57,89.668,228.805,82.573z"/>
	<path d="M219.86,49.427c-0.754-0.437-1.722-0.178-2.159,0.578c-0.436,0.755-0.177,1.722,0.578,2.157
		c12.724,7.356,20.629,21.045,20.629,35.725c0,22.735-18.497,41.23-41.231,41.23c-22.735,0-41.231-18.496-41.231-41.23
		c0-19.187,12.933-35.589,31.507-40.071c0.274,6.292,5.723,11.334,12.401,11.334c0.776,0,1.406-0.63,1.406-1.406v-3.052h6.297
		c0.871,0,1.579-0.707,1.579-1.58s-0.708-1.58-1.579-1.58h-6.297v-8.416h6.297c0.871,0,1.579-0.707,1.579-1.579
		c0-0.873-0.708-1.58-1.579-1.58h-6.297v-3.053c0-0.776-0.628-1.406-1.406-1.406c-5.862,0-10.777,3.887-12.078,9.091
		c-0.175-0.021-0.356-0.02-0.538,0.021c-20.284,4.643-34.452,22.436-34.452,43.275c0,24.477,19.914,44.39,44.391,44.39
		c24.477,0,44.391-19.913,44.391-44.39C242.067,72.083,233.558,57.346,219.86,49.427z M198.947,38.407v17.835
		c-4.639-0.64-8.209-4.395-8.209-8.918C190.738,42.801,194.309,39.047,198.947,38.407z"/>
</g>
<g>
	<path d="M270.107,81.399c0.285,0.285,0.428,0.633,0.428,1.043s-0.143,0.752-0.428,1.026c-0.285,0.273-0.632,0.41-1.042,0.41
		h-13.711c-0.434,0-0.798-0.148-1.094-0.444c-0.296-0.296-0.444-0.661-0.444-1.094V61.584c0-0.433,0.148-0.804,0.444-1.111
		c0.296-0.308,0.661-0.462,1.094-0.462h13.711c0.41,0,0.757,0.143,1.042,0.428s0.428,0.632,0.428,1.042
		c0,0.411-0.143,0.752-0.428,1.026s-0.632,0.411-1.042,0.411h-12.139v7.556h10.908c0.41,0,0.757,0.143,1.042,0.428
		c0.285,0.285,0.428,0.632,0.428,1.043c0,0.41-0.143,0.752-0.428,1.025c-0.285,0.274-0.632,0.411-1.042,0.411h-10.908v7.591h12.139
		C269.475,80.972,269.822,81.114,270.107,81.399z"/>
	<path d="M283.494,68.97c-2.006,0-3.875,1.094-5.607,3.283V82.51c0,0.433-0.154,0.798-0.462,1.094s-0.678,0.444-1.111,0.444
		s-0.798-0.148-1.094-0.444s-0.444-0.661-0.444-1.094V67.841c0-0.456,0.148-0.832,0.444-1.128s0.661-0.445,1.094-0.445
		s0.804,0.148,1.111,0.445s0.462,0.672,0.462,1.128v1.402c0.911-0.958,1.698-1.63,2.359-2.018c1.299-0.752,2.536-1.128,3.71-1.128
		c1.174,0,2.137,0.177,2.89,0.53c0.752,0.354,1.39,0.838,1.915,1.454c1.071,1.254,1.607,2.827,1.607,4.718v9.711
		c0,0.433-0.154,0.798-0.461,1.094s-0.679,0.444-1.111,0.444c-0.433,0-0.798-0.148-1.094-0.444
		c-0.296-0.296-0.444-0.661-0.444-1.094v-9.369c0-1.299-0.291-2.319-0.872-3.061C285.802,69.341,284.838,68.97,283.494,68.97z"/>
	<path d="M306.881,67.158c0.273-0.593,0.775-0.889,1.504-0.889c0.365,0,0.695,0.154,0.992,0.462
		c0.296,0.308,0.445,0.598,0.445,0.872c0,0.365-0.058,0.684-0.171,0.958l-5.949,14.224c-0.16,0.342-0.405,0.639-0.735,0.889
		c-0.331,0.25-0.712,0.376-1.146,0.376h-0.342c-0.433,0-0.815-0.125-1.146-0.376c-0.331-0.25-0.576-0.547-0.735-0.889l-5.949-14.224
		c-0.114-0.273-0.171-0.569-0.171-0.889c0-0.319,0.148-0.632,0.444-0.94c0.296-0.308,0.627-0.462,0.992-0.462
		c0.729,0,1.231,0.296,1.504,0.889l5.231,13.267L306.881,67.158z"/>
	<path d="M316.968,61.14c0,0.479-0.171,0.889-0.513,1.231c-0.342,0.342-0.752,0.513-1.231,0.513h-0.206
		c-0.479,0-0.889-0.171-1.231-0.513c-0.342-0.342-0.513-0.752-0.513-1.231v-0.137c0-0.479,0.171-0.889,0.513-1.231
		c0.342-0.342,0.752-0.513,1.231-0.513h0.206c0.479,0,0.889,0.171,1.231,0.513c0.342,0.342,0.513,0.752,0.513,1.231V61.14z
		 M313.994,66.713c0.296-0.296,0.667-0.445,1.111-0.445c0.445,0,0.815,0.148,1.111,0.445c0.296,0.296,0.445,0.672,0.445,1.128V82.51
		c0,0.433-0.149,0.798-0.445,1.094c-0.296,0.296-0.667,0.444-1.111,0.444c-0.444,0-0.815-0.148-1.111-0.444
		c-0.297-0.296-0.445-0.661-0.445-1.094V67.841C313.549,67.386,313.697,67.01,313.994,66.713z"/>
	<path d="M325.311,69.312c1.595-2.143,3.385-3.214,5.368-3.214h0.171c0.433,0,0.792,0.148,1.077,0.444
		c0.285,0.297,0.427,0.667,0.427,1.111c0,0.445-0.148,0.798-0.444,1.06c-0.297,0.262-0.673,0.393-1.128,0.393h-0.171
		c-1.14,0-2.16,0.28-3.061,0.838c-0.9,0.559-1.647,1.282-2.239,2.171V82.51c0,0.433-0.154,0.798-0.462,1.094
		s-0.678,0.444-1.111,0.444s-0.798-0.148-1.094-0.444s-0.444-0.661-0.444-1.094V67.841c0-0.433,0.148-0.803,0.444-1.111
		c0.296-0.308,0.661-0.462,1.094-0.462s0.804,0.154,1.111,0.462c0.308,0.308,0.462,0.678,0.462,1.111V69.312z"/>
	<path d="M343.125,66.098c2.644,0,4.764,0.833,6.36,2.496c1.595,1.687,2.394,3.875,2.394,6.565c0,2.69-0.798,4.878-2.394,6.565
		c-1.596,1.665-3.716,2.496-6.36,2.496c-2.667,0-4.787-0.832-6.36-2.496c-1.596-1.664-2.394-3.852-2.394-6.565
		c0-2.712,0.798-4.901,2.394-6.565C338.338,66.93,340.458,66.098,343.125,66.098z M339.312,79.963c0.536,0.49,1.14,0.85,1.812,1.077
		c0.672,0.228,1.333,0.342,1.983,0.342c0.65,0,1.311-0.114,1.983-0.342c0.672-0.228,1.282-0.582,1.829-1.06
		c1.231-1.117,1.847-2.735,1.847-4.855c0-2.051-0.616-3.647-1.847-4.787c-1.026-0.934-2.291-1.402-3.795-1.402
		c-2.462,0-4.171,1.106-5.129,3.317c-0.342,0.798-0.513,1.761-0.513,2.889s0.171,2.092,0.513,2.889
		C338.338,78.829,338.777,79.473,339.312,79.963z"/>
	<path d="M364.94,68.97c-2.006,0-3.875,1.094-5.607,3.283V82.51c0,0.433-0.154,0.798-0.462,1.094s-0.678,0.444-1.111,0.444
		s-0.798-0.148-1.094-0.444s-0.444-0.661-0.444-1.094V67.841c0-0.456,0.148-0.832,0.444-1.128s0.661-0.445,1.094-0.445
		s0.804,0.148,1.111,0.445s0.462,0.672,0.462,1.128v1.402c0.911-0.958,1.698-1.63,2.359-2.018c1.299-0.752,2.536-1.128,3.71-1.128
		c1.174,0,2.137,0.177,2.89,0.53c0.752,0.354,1.39,0.838,1.915,1.454c1.071,1.254,1.607,2.827,1.607,4.718v9.711
		c0,0.433-0.154,0.798-0.461,1.094s-0.679,0.444-1.111,0.444c-0.433,0-0.798-0.148-1.094-0.444
		c-0.296-0.296-0.444-0.661-0.444-1.094v-9.369c0-1.299-0.291-2.319-0.872-3.061C367.248,69.341,366.285,68.97,364.94,68.97z"/>
	<path d="M380.155,69.244c1.39-2.097,3.328-3.146,5.812-3.146c1.231,0,2.348,0.365,3.351,1.094c0.82,0.57,1.447,1.379,1.88,2.428
		c0.638-1.003,1.265-1.71,1.881-2.12c1.299-0.935,2.77-1.402,4.411-1.402c1.847,0,3.294,0.707,4.343,2.12
		c0.91,1.208,1.367,2.69,1.367,4.445v9.848c0,0.433-0.154,0.798-0.461,1.094c-0.309,0.296-0.68,0.444-1.111,0.444
		c-0.434,0-0.799-0.148-1.095-0.444c-0.297-0.296-0.445-0.661-0.445-1.094v-9.232c0-1.436-0.256-2.513-0.769-3.231
		c-0.513-0.718-1.419-1.077-2.719-1.077c-2.006,0-3.647,1.094-4.923,3.283V82.51c0,0.433-0.154,0.798-0.462,1.094
		s-0.678,0.444-1.111,0.444s-0.798-0.148-1.094-0.444c-0.297-0.296-0.445-0.661-0.445-1.094v-9.232c0-1.436-0.256-2.513-0.769-3.231
		c-0.513-0.718-1.419-1.077-2.719-1.077c-2.006,0-3.647,1.094-4.923,3.283V82.51c0,0.433-0.154,0.798-0.462,1.094
		s-0.678,0.444-1.111,0.444s-0.798-0.148-1.094-0.444s-0.444-0.661-0.444-1.094V67.841c0-0.433,0.148-0.803,0.444-1.111
		c0.296-0.308,0.661-0.462,1.094-0.462s0.804,0.154,1.111,0.462c0.308,0.308,0.462,0.678,0.462,1.111V69.244z"/>
	<path d="M412.331,79.946c0.979,0.912,2.347,1.368,4.103,1.368c1.755,0,3.226-0.296,4.411-0.889c0.41-0.205,0.764-0.308,1.06-0.308
		s0.582,0.125,0.855,0.376c0.273,0.251,0.41,0.536,0.41,0.855c0,0.593-0.245,1.021-0.735,1.282c-0.49,0.262-0.929,0.484-1.316,0.667
		s-0.81,0.342-1.265,0.479c-1.026,0.296-2.212,0.444-3.557,0.444c-2.804,0-4.98-0.786-6.53-2.359
		c-1.551-1.573-2.325-3.807-2.325-6.702c0-2.507,0.649-4.593,1.948-6.257c1.459-1.869,3.533-2.804,6.224-2.804
		c2.553,0,4.57,0.867,6.052,2.599c1.391,1.619,2.086,3.625,2.086,6.018c0,0.433-0.143,0.798-0.428,1.094
		c-0.285,0.296-0.666,0.444-1.146,0.444h-11.591C410.769,77.803,411.351,79.034,412.331,79.946z M415.613,68.73
		c-2.029,0-3.511,0.901-4.445,2.701c-0.342,0.639-0.536,1.402-0.581,2.291h10.087c-0.092-1.618-0.684-2.895-1.778-3.83
		C417.983,69.118,416.89,68.73,415.613,68.73z"/>
	<path d="M436.675,68.97c-2.006,0-3.875,1.094-5.607,3.283V82.51c0,0.433-0.153,0.798-0.461,1.094
		c-0.309,0.296-0.679,0.444-1.111,0.444c-0.434,0-0.799-0.148-1.095-0.444s-0.444-0.661-0.444-1.094V67.841
		c0-0.456,0.148-0.832,0.444-1.128s0.661-0.445,1.095-0.445c0.433,0,0.803,0.148,1.111,0.445c0.308,0.296,0.461,0.672,0.461,1.128
		v1.402c0.912-0.958,1.698-1.63,2.359-2.018c1.3-0.752,2.536-1.128,3.71-1.128s2.137,0.177,2.89,0.53
		c0.752,0.354,1.39,0.838,1.915,1.454c1.07,1.254,1.606,2.827,1.606,4.718v9.711c0,0.433-0.153,0.798-0.462,1.094
		c-0.308,0.296-0.678,0.444-1.11,0.444c-0.434,0-0.799-0.148-1.095-0.444c-0.297-0.296-0.444-0.661-0.444-1.094v-9.369
		c0-1.299-0.291-2.319-0.872-3.061C438.983,69.341,438.02,68.97,436.675,68.97z"/>
	<path d="M455.02,81.484c0.604,0,1.037-0.051,1.3-0.154c0.262-0.103,0.547-0.154,0.854-0.154s0.587,0.114,0.838,0.342
		c0.25,0.228,0.376,0.57,0.376,1.026c0,0.456-0.229,0.787-0.684,0.992c-0.98,0.456-1.818,0.684-2.514,0.684
		s-1.328-0.034-1.897-0.103c-0.57-0.068-1.117-0.262-1.642-0.581c-1.254-0.729-1.88-2.006-1.88-3.83v-10.6h-2.428
		c-0.434,0-0.65-0.216-0.65-0.649c0-0.205,0.103-0.398,0.308-0.582l4.65-4.547c0.205-0.205,0.398-0.308,0.581-0.308
		s0.337,0.068,0.462,0.205s0.188,0.296,0.188,0.479v2.735h3.863c0.388,0,0.706,0.125,0.958,0.376c0.25,0.251,0.376,0.57,0.376,0.957
		c0,0.388-0.126,0.707-0.376,0.958c-0.252,0.251-0.57,0.376-0.958,0.376h-3.863v10.327c0,0.866,0.262,1.459,0.786,1.778
		C453.965,81.394,454.415,81.484,455.02,81.484z"/>
	<path d="M462.422,67.329c1.915-0.821,3.898-1.231,5.95-1.231c2.325,0,4.125,0.707,5.402,2.12c1.14,1.231,1.709,2.77,1.709,4.616
		v9.677c0,0.433-0.153,0.798-0.461,1.094s-0.679,0.444-1.111,0.444c-0.434,0-0.799-0.148-1.095-0.444s-0.444-0.661-0.444-1.094
		v-0.889c-0.615,0.639-1.441,1.231-2.479,1.778c-1.038,0.547-2.354,0.82-3.949,0.82c-1.573,0-2.884-0.456-3.933-1.368
		c-1.094-0.958-1.641-2.21-1.641-3.761c0-1.687,0.638-3.009,1.914-3.966c1.391-1.048,3.374-1.573,5.95-1.573h4.137v-0.273
		c0-1.527-0.376-2.616-1.128-3.266c-0.753-0.649-1.903-0.975-3.454-0.975c-1.322,0-2.838,0.274-4.547,0.821
		c-0.183,0.046-0.389,0.068-0.616,0.068s-0.467-0.12-0.718-0.359s-0.376-0.61-0.376-1.111
		C461.533,67.956,461.829,67.58,462.422,67.329z M463.482,78.749c0,1.824,1.208,2.735,3.624,2.735c1.071,0,2.068-0.262,2.992-0.786
		c0.923-0.524,1.681-1.117,2.273-1.778v-2.872h-3.727c-1.619,0-2.884,0.205-3.796,0.615
		C463.938,77.074,463.482,77.769,463.482,78.749z"/>
	<path d="M481.467,59.191c0.296-0.296,0.667-0.445,1.111-0.445s0.815,0.148,1.111,0.445s0.444,0.672,0.444,1.128V82.51
		c0,0.433-0.148,0.798-0.444,1.094s-0.667,0.444-1.111,0.444s-0.815-0.148-1.111-0.444s-0.444-0.661-0.444-1.094V60.319
		C481.022,59.863,481.171,59.487,481.467,59.191z"/>
	<path d="M270.945,112.108c0.182-0.091,0.438-0.137,0.77-0.137c0.33,0,0.615,0.131,0.854,0.393c0.239,0.262,0.359,0.564,0.359,0.906
		c0,0.615-0.251,1.048-0.752,1.299c-1.072,0.593-2.217,1.094-3.437,1.504c-1.22,0.41-2.679,0.615-4.376,0.615
		c-1.698,0-3.277-0.279-4.736-0.837c-1.459-0.559-2.724-1.373-3.795-2.445c-2.28-2.234-3.419-5.231-3.419-8.993
		s1.139-6.759,3.419-8.993c2.211-2.188,5.061-3.283,8.548-3.283c1.687,0,3.14,0.205,4.359,0.616c1.219,0.41,2.154,0.792,2.804,1.145
		c0.649,0.354,1.042,0.639,1.179,0.855c0.137,0.217,0.206,0.491,0.206,0.821c0,0.331-0.12,0.627-0.359,0.889
		c-0.239,0.263-0.524,0.394-0.854,0.394c-0.331,0-0.587-0.045-0.77-0.137c-0.912-0.479-1.846-0.866-2.804-1.163
		c-0.958-0.296-2.149-0.445-3.573-0.445c-1.425,0-2.713,0.24-3.864,0.718c-1.151,0.479-2.115,1.14-2.889,1.983
		c-1.527,1.665-2.291,3.864-2.291,6.6c0,2.735,0.764,4.936,2.291,6.599c1.664,1.801,3.955,2.701,6.873,2.701
		c1.345,0,2.496-0.148,3.454-0.444S270.033,112.587,270.945,112.108z"/>
	<path d="M284.212,98.568c2.644,0,4.764,0.833,6.36,2.496c1.595,1.687,2.394,3.875,2.394,6.565c0,2.69-0.798,4.878-2.394,6.565
		c-1.596,1.665-3.716,2.496-6.36,2.496c-2.667,0-4.787-0.832-6.36-2.496c-1.596-1.664-2.394-3.852-2.394-6.565
		c0-2.712,0.798-4.901,2.394-6.565C279.425,99.4,281.545,98.568,284.212,98.568z M280.399,112.433c0.536,0.49,1.14,0.85,1.812,1.077
		c0.672,0.228,1.333,0.342,1.983,0.342c0.65,0,1.311-0.114,1.983-0.342c0.672-0.228,1.282-0.582,1.829-1.06
		c1.231-1.117,1.847-2.735,1.847-4.855c0-2.051-0.616-3.647-1.847-4.787c-1.026-0.934-2.291-1.402-3.795-1.402
		c-2.462,0-4.171,1.106-5.129,3.317c-0.342,0.798-0.513,1.761-0.513,2.889s0.171,2.092,0.513,2.889
		C279.425,111.299,279.864,111.943,280.399,112.433z"/>
	<path d="M310.369,114.091c-1.687,1.733-3.636,2.599-5.847,2.599c-2.188,0-4.081-0.774-5.676-2.325
		c-1.732-1.709-2.599-3.955-2.599-6.736c0-2.735,0.866-4.969,2.599-6.702c1.573-1.573,3.465-2.359,5.676-2.359
		c2.21,0,4.16,0.867,5.847,2.599V92.79c0-0.456,0.148-0.832,0.445-1.128c0.296-0.296,0.667-0.445,1.111-0.445
		c0.444,0,0.814,0.148,1.111,0.445s0.445,0.672,0.445,1.128v22.191c0,0.433-0.148,0.798-0.445,1.094s-0.667,0.444-1.111,0.444
		c-0.445,0-0.815-0.148-1.111-0.444c-0.297-0.296-0.445-0.661-0.445-1.094V114.091z M310.369,104.039
		c-1.55-1.709-3.351-2.564-5.402-2.564c-2.599,0-4.32,1.163-5.163,3.488c-0.296,0.775-0.444,1.664-0.444,2.667
		c0,1.961,0.535,3.5,1.607,4.616c0.98,1.026,2.313,1.539,4,1.539c2.052,0,3.852-0.855,5.402-2.564V104.039z"/>
	<path d="M322.747,112.416c0.98,0.912,2.348,1.368,4.103,1.368s3.226-0.296,4.411-0.889c0.41-0.205,0.763-0.308,1.06-0.308
		c0.296,0,0.581,0.125,0.854,0.376c0.274,0.251,0.411,0.536,0.411,0.855c0,0.593-0.246,1.021-0.735,1.282
		c-0.49,0.262-0.929,0.484-1.316,0.667c-0.388,0.183-0.81,0.342-1.265,0.479c-1.026,0.296-2.211,0.444-3.556,0.444
		c-2.804,0-4.981-0.786-6.531-2.359c-1.55-1.573-2.325-3.807-2.325-6.702c0-2.507,0.65-4.593,1.949-6.257
		c1.458-1.869,3.533-2.804,6.223-2.804c2.553,0,4.57,0.867,6.052,2.599c1.39,1.619,2.086,3.625,2.086,6.018
		c0,0.433-0.143,0.798-0.427,1.094c-0.286,0.296-0.667,0.444-1.146,0.444h-11.591C321.185,110.273,321.766,111.504,322.747,112.416z
		 M326.029,101.201c-2.029,0-3.511,0.901-4.445,2.701c-0.342,0.639-0.536,1.402-0.581,2.291h10.087
		c-0.091-1.618-0.684-2.895-1.778-3.83C328.4,101.588,327.306,101.201,326.029,101.201z"/>
	<path d="M365.008,112.108c0.182-0.091,0.438-0.137,0.77-0.137c0.33,0,0.615,0.131,0.854,0.393c0.239,0.262,0.359,0.564,0.359,0.906
		c0,0.615-0.251,1.048-0.752,1.299c-1.072,0.593-2.217,1.094-3.437,1.504c-1.22,0.41-2.679,0.615-4.376,0.615
		c-1.698,0-3.277-0.279-4.736-0.837c-1.459-0.559-2.724-1.373-3.795-2.445c-2.28-2.234-3.419-5.231-3.419-8.993
		s1.139-6.759,3.419-8.993c2.211-2.188,5.061-3.283,8.548-3.283c1.687,0,3.14,0.205,4.359,0.616c1.219,0.41,2.154,0.792,2.804,1.145
		c0.649,0.354,1.042,0.639,1.179,0.855c0.137,0.217,0.206,0.491,0.206,0.821c0,0.331-0.12,0.627-0.359,0.889
		c-0.239,0.263-0.524,0.394-0.854,0.394c-0.331,0-0.587-0.045-0.77-0.137c-0.912-0.479-1.846-0.866-2.804-1.163
		c-0.958-0.296-2.149-0.445-3.573-0.445c-1.425,0-2.713,0.24-3.864,0.718c-1.151,0.479-2.115,1.14-2.889,1.983
		c-1.527,1.665-2.291,3.864-2.291,6.6c0,2.735,0.764,4.936,2.291,6.599c1.664,1.801,3.955,2.701,6.873,2.701
		c1.345,0,2.496-0.148,3.454-0.444S364.096,112.587,365.008,112.108z"/>
	<path d="M371.847,91.661c0.296-0.296,0.667-0.445,1.111-0.445c0.444,0,0.814,0.148,1.111,0.445s0.445,0.672,0.445,1.128v22.191
		c0,0.433-0.148,0.798-0.445,1.094s-0.667,0.444-1.111,0.444c-0.445,0-0.815-0.148-1.111-0.444
		c-0.297-0.296-0.445-0.661-0.445-1.094V92.79C371.402,92.333,371.55,91.958,371.847,91.661z"/>
	<path d="M386.926,113.818c2.006,0,3.875-1.094,5.608-3.283v-10.258c0-0.433,0.154-0.797,0.461-1.094s0.678-0.445,1.111-0.445
		c0.433,0,0.798,0.148,1.094,0.445c0.296,0.296,0.444,0.661,0.444,1.094v14.669c0,0.456-0.148,0.833-0.444,1.128
		c-0.296,0.296-0.662,0.444-1.094,0.444c-0.433,0-0.804-0.148-1.111-0.444s-0.461-0.672-0.461-1.128v-1.402
		c-0.912,0.958-1.699,1.63-2.359,2.017c-1.299,0.752-2.536,1.128-3.71,1.128c-1.174,0-2.137-0.177-2.889-0.53
		c-0.752-0.353-1.391-0.838-1.915-1.453c-1.072-1.253-1.607-2.826-1.607-4.719v-9.711c0-0.433,0.154-0.797,0.461-1.094
		c0.308-0.296,0.678-0.445,1.111-0.445s0.798,0.148,1.094,0.445c0.296,0.296,0.444,0.661,0.444,1.094v9.369
		c0,1.299,0.291,2.32,0.872,3.06C384.618,113.448,385.581,113.818,386.926,113.818z"/>
	<path d="M404.158,101.167c1.687-1.732,3.636-2.599,5.848-2.599c2.21,0,4.103,0.787,5.676,2.359
		c1.731,1.732,2.599,3.966,2.599,6.702c0,2.781-0.867,5.026-2.599,6.736c-1.596,1.551-3.494,2.325-5.693,2.325
		c-2.2,0-4.144-0.866-5.83-2.599v0.889c0,0.433-0.148,0.798-0.444,1.094c-0.297,0.296-0.667,0.444-1.111,0.444
		s-0.815-0.148-1.111-0.444s-0.444-0.661-0.444-1.094V92.79c0-0.456,0.148-0.832,0.444-1.128s0.667-0.445,1.111-0.445
		s0.814,0.148,1.111,0.445c0.296,0.296,0.444,0.672,0.444,1.128V101.167z M404.158,111.219c1.55,1.709,3.352,2.564,5.402,2.564
		c2.599,0,4.331-1.163,5.197-3.488c0.274-0.774,0.411-1.664,0.411-2.667c0-1.96-0.525-3.499-1.573-4.616
		c-1.003-1.026-2.348-1.539-4.035-1.539c-2.051,0-3.853,0.855-5.402,2.564V111.219z"/>
</g>
<rect x="148.5" y="34.5" fill="none" width="342" height="105"/>
</svg>
